#!OML:ASF F:\VICON\USERDATA\INSTALL\rory3\rory3.ASF
:FULLY-SPECIFIED
:DEGREES
174
root -3.20007 16.8699 2.83289 1.51713 -26.8521 1.42108
lowerback 6.9326 0.43543 -1.96398
upperback 0.714099 0.566325 4.6596
thorax -3.22027 0.328339 5.9156
lowerneck -23.9219 3.16189 -6.14403
upperneck 24.6267 6.07408 2.42489
head 11.7648 2.44606 2.93433
rclavicle -2.0276e-014 -6.36111e-015
rhumerus 0.546613 31.9407 -70.4868
rradius 136.67
rwrist 7.99759
rhand -17.7459 18.0494
rfingers 7.12502
rthumb 8.51552 -11.7589
lclavicle -2.0276e-014 -6.36111e-015
lhumerus 14.5634 -13.87 86.1485
lradius 127.062
lwrist -6.0309
lhand -8.37573 6.34263
lfingers 7.12502
lthumb 17.5473 35.5707
rfemur -3.3271 -1.53371 7.63816
rtibia 41.5573
rfoot -29.1611 -5.98039
rtoes -15.0108
lfemur -35.0973 -8.8112 -9.7865
ltibia 45.1887
lfoot -4.42356 -7.67578
ltoes -31.1312
175
root -3.20013 16.9536 2.90351 1.87095 -24.7959 1.27476
lowerback 6.65289 0.729448 -1.95898
upperback 0.500496 0.962774 4.47497
thorax -3.32844 0.532981 5.67831
lowerneck -24.1809 2.41489 -6.50425
upperneck 24.4796 4.93691 3.23702
head 11.7789 2.02041 3.11864
rclavicle 4.77083e-014 9.54166e-015
rhumerus 1.68294 31.3966 -68.7353
rradius 137.877
rwrist 8.52282
rhand -17.7444 17.3624
rfingers 7.12502
rthumb 8.51698 -12.4458
lclavicle 4.77083e-014 9.54166e-015
lhumerus 15.3492 -16.0091 85.8254
lradius 126.449
lwrist -5.56272
lhand -8.36516 7.07963
lfingers 7.12502
lthumb 17.5575 36.3068
rfemur -1.92086 -2.64069 8.16625
rtibia 39.725
rfoot -28.4945 -7.38726
rtoes -12.3178
lfemur -35.746 -10.6733 -9.47448
ltibia 44.7269
lfoot -2.20956 -8.56404
ltoes -28.5719
176
root -3.19796 17.0397 2.95808 2.34588 -22.7858 1.06152
lowerback 6.48782 1.09998 -1.84213
upperback 0.274705 1.46657 4.20248
thorax -3.51691 0.789479 5.27416
lowerneck -24.5342 1.60289 -6.89416
upperneck 24.3333 3.66767 4.26125
head 11.8301 1.56206 3.3693
rclavicle 1.33186e-014 9.54166e-015
rhumerus 3.40285 30.4802 -66.4766
rradius 138.942
rwrist 8.44336
rhand -17.8133 16.8662
rfingers 7.12502
rthumb 8.45051 -12.9447
lclavicle 1.33186e-014 9.54166e-015
lhumerus 16.4601 -18.1622 85.1424
lradius 125.885
lwrist -4.66986
lhand -8.23191 7.94738
lfingers 7.12502
lthumb 17.6857 37.1631
rfemur -0.708466 -3.31071 8.82536
rtibia 38.1539
rfoot -28.3466 -7.1458
rtoes -4.75961
lfemur -36.641 -11.9058 -9.1965
ltibia 44.3084
lfoot 0.238111 -9.80665
ltoes -27.7354
177
root -3.19444 17.1279 3.00606 2.85232 -20.9465 0.875574
lowerback 5.32973 1.43359 -1.12085
upperback 0.811815 1.91936 3.44274
thorax -2.30785 0.976105 4.04598
lowerneck -25.3902 0.853008 -6.76944
upperneck 23.6888 2.35355 5.20125
head 11.8187 1.13506 3.48843
rclavicle 5.00937e-014 1.27222e-014
rhumerus 7.01937 28.6744 -63.8709
rradius 139.088
rwrist 8.18142
rhand -18.3651 16.4099
rfingers 7.12502
rthumb 7.91794 -13.4218
lclavicle 5.00937e-014 1.27222e-014
lhumerus 19.0786 -20.097 83.0772
lradius 125.321
lwrist -3.56538
lhand -7.7465 8.89138
lfingers 7.12502
lthumb 18.1527 38.0643
rfemur 0.197032 -3.90742 9.54095
rtibia 36.8274
rfoot -28.098 -6.92447
rtoes -0.89162
lfemur -37.5672 -12.8985 -8.86449
ltibia 43.8907
lfoot 3.10402 -11.0494
ltoes -26.2574
178
root -3.19113 17.2273 3.04525 3.31028 -19.3136 0.667709
lowerback 3.71599 1.7152 0.0679487
upperback 1.65529 2.29673 2.41142
thorax -0.479828 1.13853 2.34126
lowerneck -25.9074 0.248659 -6.42972
upperneck 22.727 1.1668 6.08059
head 11.6285 0.77659 3.54706
rclavicle -1.97791e-014 -1.59028e-015
rhumerus 11.5675 26.3304 -61.4498
rradius 138.047
rwrist 7.73095
rhand -19.0885 15.9267
rfingers 7.12502
rthumb 7.21968 -13.9302
lclavicle -1.97791e-014 -1.59028e-015
lhumerus 22.1524 -21.5573 80.1838
lradius 124.963
lwrist -2.58972
lhand -7.72787 8.11933
lfingers 7.12502
lthumb 18.1707 37.2906
rfemur 0.98933 -4.52262 10.3549
rtibia 35.5367
rfoot -27.3214 -7.19797
rtoes -3.61768
lfemur -38.483 -13.4817 -8.5207
ltibia 43.5696
lfoot 6.17092 -12.2905
ltoes -24.394
179
root -3.18964 17.3332 3.07441 3.64943 -17.9057 0.474038
lowerback 6.00967 2.3698 -0.864719
upperback -0.301959 3.20522 2.94159
thorax -3.89998 1.63941 3.22966
lowerneck -24.1145 -0.481921 -7.41563
upperneck 23.5867 0.359382 6.13168
head 11.6801 0.300579 3.59632
rclavicle 4.80065e-014 -6.36111e-015
rhumerus 12.4474 25.7404 -58.3136
rradius 136.408
rwrist 6.28411
rhand -19.2521 15.1427
rfingers 7.12502
rthumb 7.06179 -14.7194
lclavicle 4.80065e-014 -6.36111e-015
lhumerus 20.0804 -23.3062 81.562
lradius 124.233
lwrist -4.03292
lhand -8.90913 5.22087
lfingers 7.12502
lthumb 17.0339 34.494
rfemur 1.80073 -4.93454 11.2167
rtibia 34.3575
rfoot -26.3301 -6.80771
rtoes -8.29976
lfemur -39.3356 -13.5431 -8.3946
ltibia 43.2257
lfoot 9.22 -13.7961
ltoes -24.3181
180
root -3.18979 17.4284 3.0978 3.86935 -16.6999 0.273053
lowerback 6.61901 2.91668 -0.502923
upperback -0.88884 3.96467 2.52079
thorax -4.84817 2.01208 2.46888
lowerneck -23.1061 -1.12611 -7.73172
upperneck 23.5221 -0.684174 6.74248
head 11.5519 -0.126449 3.69582
rclavicle -5.57591e-014 -1.35174e-014
rhumerus 15.4834 23.594 -56.0903
rradius 133.269
rwrist 4.97108
rhand -18.8891 14.3396
rfingers 7.12502
rthumb 7.41217 -15.5106
lclavicle -5.57591e-014 -1.35174e-014
lhumerus 20.4821 -24.8519 80.5281
lradius 124.173
lwrist -4.41683
lhand -8.69063 5.63211
lfingers 7.12502
lthumb 17.2442 34.887
rfemur 2.68744 -4.98271 12.1298
rtibia 33.4024
rfoot -25.6989 -5.27501
rtoes -10.7951
lfemur -40.051 -13.3132 -8.3903
ltibia 42.7971
lfoot 12.1062 -15.4179
ltoes -24.6263
181
root -3.19253 17.5126 3.11781 4.0918 -15.5834 0.06401
lowerback 7.15538 3.59752 0.122776
upperback -0.93387 4.90076 1.86941
thorax -5.13305 2.44643 1.30518
lowerneck -24.3293 -2.01897 -7.73443
upperneck 24.0332 -2.03642 7.3072
head 12.113 -0.644871 3.71815
rclavicle -3.94091e-014 5.56597e-015
rhumerus 19.166 19.9895 -53.9909
rradius 128.93
rwrist 4.00565
rhand -17.7233 13.4304
rfingers 7.12502
rthumb 8.53737 -16.377
lclavicle -3.94091e-014 5.56597e-015
lhumerus 22.4018 -26.2004 78.8189
lradius 123.97
lwrist -4.67086
lhand -8.14121 5.69774
lfingers 7.12502
lthumb 17.773 34.9055
rfemur 3.50637 -4.82783 13.067
rtibia 32.8005
rfoot -25.1692 -4.78345
rtoes -10.3774
lfemur -40.7135 -12.9535 -8.42094
ltibia 42.2639
lfoot 14.6338 -17.1707
ltoes -24.2202
